# xmcd
#
# Track frame offsets: 
#        150
#        17747
#        35455
#        72352
#        92067
#        101657
#        126260
#        149917
#        170782
#        182662
#        193347
#        203560
#        217447
#        227800
#
# Disc length: 3121 seconds
#
# Revision: 2
# Processed by: cddbd v1.5.2PL0 Copyright (c) Steve Scherf et al.
# Submitted via: ExactAudioCopy v0.90b4
#
DISCID=e00c2f0e
DTITLE=Various Artist - Violeiros Do Brasil
DYEAR=1998
DGENRE=MPB
TTITLE0=Almir Sater - Doma
TTITLE1=Roberto Corrêa - Mazurca Pantaneira
TTITLE2=Adelmo Arcoverde - Antonio Conselheiro E O Arraial De Bom Jesu
TTITLE2=s
TTITLE3=Paulo Freire - Seca
TTITLE4=Catira Ás De Ouro - Catira Ás De Ouro
TTITLE5=Ivan Vilela - Voando Com Asa Branca
TTITLE6=Pereira Da Viola - Embolada Do Cabloco
TTITLE7=Passoca - Tristeza Do Jeca
TTITLE8=Renato Andrade - O Canto Da Siriema
TTITLE9=Tavinho Moura - Mato Grosso
TTITLE10=Orquestra De Viola Caipira - O Trenzinho Do Caipira
TTITLE11=Zé Mulato and Cassiano - O Caipira De Gravata
TTITLE12=Zé Coco Do Riachão - O Amanhecer No Sertão
TTITLE13=Folia De Reis Alto Do Baeta - Folia De Reis Alto Do Baeta
EXTD=
EXTT0=
EXTT1=
EXTT2=
EXTT3=
EXTT4=
EXTT5=
EXTT6=
EXTT7=
EXTT8=
EXTT9=
EXTT10=
EXTT11=
EXTT12=
EXTT13=
PLAYORDER=
